<?xml version="1.0" standalone="no"?><!DOCTYPE svg PUBLIC "-//W3C//DTD SVG 1.1//EN" "http://www.w3.org/Graphics/SVG/1.1/DTD/svg11.dtd"><svg t="1614611761784" class="icon" viewBox="0 0 1024 1024" version="1.1" xmlns="http://www.w3.org/2000/svg" p-id="2070" xmlns:xlink="http://www.w3.org/1999/xlink" width="64" height="64"><defs><style type="text/css"></style></defs><path d="M437 923.94c-1.99 0-4.01-0.17-6.03-0.53-172.15-30.29-292.49-179.33-292.49-354.39 0-170.2 120.85-318.47 287.36-352.54 18.74-3.84 36.98 8.23 40.8 26.94 3.83 18.7-8.23 36.97-26.94 40.8-134.48 27.52-232.08 147.29-232.08 284.8 0 141.43 100.91 261.83 239.94 286.29 18.8 3.31 31.37 21.23 28.06 40.04-2.95 16.78-22.15 28.59-38.62 28.59zM577.77 919.1c-15.48 0-29.56-10.47-33.5-26.16-4.65-18.51 6.59-37.3 25.11-41.95 129.33-32.47 219.65-148.42 219.65-281.97 0-134.88-91.44-251.1-222.36-282.63-18.56-4.47-29.99-23.14-25.51-41.71 4.47-18.56 23.14-29.99 41.7-25.51 162.1 39.04 275.32 182.91 275.32 349.86 0 165.3-111.83 308.82-271.96 349.03-2.83 0.7-5.66 1.04-8.45 1.04z" p-id="2071"></path><path d="M208.13 441.97c-14.96 0-28.75-9.79-33.17-24.87L94.5 143.73a34.558 34.558 0 0 1 11.37-36.53 34.567 34.567 0 0 1 38.08-3.68l313.89 112.73c16.85 8.99 23.22 29.93 14.23 46.78-8.98 16.84-29.92 23.22-46.77 14.23l-241.34-74.03 57.36 194.45c5.36 18.33-5.15 37.53-23.47 42.89-3.24 0.94-6.51 1.4-9.72 1.4zM781.1 427.18c-4.7 0-9.48-0.97-14.05-3-17.44-7.77-25.28-28.21-17.51-45.65l72.22-169.91-233.37 72.55c-16.96 8.75-37.82 2.1-46.58-14.87-8.76-16.97-2.1-37.82 14.87-46.58L877.57 102c13.05-6.73 28.92-4.49 39.59 5.59 10.67 10.08 13.82 25.8 7.84 39.21L812.69 406.67c-5.73 12.87-18.36 20.51-31.59 20.51z" p-id="2072"></path><path d="M380.02 418.79c-4.83 0-9.74-1.02-14.41-3.17-17.35-7.97-24.95-28.5-16.98-45.85L411.47 233c7.98-17.35 28.51-24.95 45.85-16.98 17.35 7.97 24.95 28.5 16.98 45.85l-62.84 136.77c-5.83 12.67-18.35 20.15-31.44 20.15zM575.93 917.79c-4.83 0-9.74-1.02-14.41-3.16-17.35-7.97-24.95-28.5-16.98-45.85l62.84-136.77c7.98-17.35 28.51-24.95 45.85-16.98 17.35 7.97 24.95 28.5 16.98 45.85l-62.84 136.77c-5.83 12.67-18.35 20.14-31.44 20.14z" p-id="2073"></path></svg>