<?xml version="1.0" standalone="no"?><!DOCTYPE svg PUBLIC "-//W3C//DTD SVG 1.1//EN" "http://www.w3.org/Graphics/SVG/1.1/DTD/svg11.dtd"><svg t="1614612523761" class="icon" viewBox="0 0 1024 1024" version="1.1" xmlns="http://www.w3.org/2000/svg" p-id="2078" width="40" height="40" xmlns:xlink="http://www.w3.org/1999/xlink"><defs><style type="text/css"></style></defs><path d="M851.935 365.923c6.04 15.428-1.57 32.832-16.998 38.872-15.428 6.04-32.832-1.57-38.872-16.998C745.295 258.122 619.893 171 478.198 171 289.756 171 137 323.674 137 512s152.756 341 341.198 341c128.944 0 245.036-72.1 303.244-184.529 7.617-14.713 25.72-20.465 40.434-12.848 14.713 7.618 20.466 25.72 12.848 40.434C766.304 828.212 629.781 913 478.198 913 256.626 913 77 733.47 77 512s179.626-401 401.198-401c166.592 0 314.036 102.435 373.737 254.923z" p-id="2079"></path><path d="M647.434 371.283c-16.076-4.008-25.86-20.29-21.853-36.366 4.008-16.076 20.289-25.86 36.366-21.853l174.865 43.59c16.077 4.007 25.86 20.288 21.853 36.364-4.007 16.077-20.288 25.861-36.365 21.854l-174.866-43.59z" p-id="2080"></path><path d="M858.635 393.076c-4.01 16.076-20.292 25.858-36.368 21.849-16.076-4.01-25.858-20.292-21.85-36.368l43.606-174.85c4.009-16.076 20.291-25.858 36.367-21.85 16.077 4.01 25.859 20.292 21.85 36.368l-43.605 174.85z" p-id="2081"></path></svg>