<?xml version="1.0" standalone="no"?><!DOCTYPE svg PUBLIC "-//W3C//DTD SVG 1.1//EN" "http://www.w3.org/Graphics/SVG/1.1/DTD/svg11.dtd"><svg t="1611892401213" class="icon" viewBox="0 0 1024 1024" version="1.1" xmlns="http://www.w3.org/2000/svg" p-id="2019" width="64" height="64" xmlns:xlink="http://www.w3.org/1999/xlink"><defs><style type="text/css"></style></defs><path d="M800 160a64 64 0 0 1 64 64v576a64 64 0 0 1-64 64H224a64 64 0 0 1-64-64V224a64 64 0 0 1 64-64h576z m0 64H224v576h576V224zM346.496 288l90.528 90.496-90.528 90.528-45.248-45.248 45.248-45.28-45.248-45.248L346.496 288zM672 352v64h-128v-64h128z" p-id="2020" fill="#2c2c2c"></path></svg>